<?xml version="1.0" standalone="no"?>
<!DOCTYPE svg PUBLIC "-//W3C//DTD SVG 20010904//EN"
 "http://www.w3.org/TR/2001/REC-SVG-20010904/DTD/svg10.dtd">
<svg version="1.0" xmlns="http://www.w3.org/2000/svg"
 width="680.000000pt" height="340.000000pt" viewBox="0 0 680.000000 340.000000"
 preserveAspectRatio="xMidYMid meet">
<metadata>
Created by potrace 1.16, written by Peter Selinger 2001-2019
</metadata>
<g transform="translate(0.000000,340.000000) scale(0.100000,-0.100000)"
fill="#000000" stroke="none">
<path d="M1792 2228 c-1 -70 -6 -98 -14 -99 -7 -1 -2 -5 12 -9 l25 -8 -25 -1
c-29 -2 -66 -20 -40 -21 11 0 11 -3 3 -8 -6 -4 -13 -28 -16 -52 l-4 -45 -3 50
-3 50 -6 -50 c-5 -39 -3 -52 9 -58 9 -4 5 -5 -10 -2 -14 2 -47 6 -75 7 l-50 1
60 7 60 7 -60 -1 c-40 -1 -60 -5 -61 -13 -1 -7 -3 -77 -5 -155 l-3 -143 -6
145 -6 145 -3 -135 c-3 -154 -14 -215 -24 -140 -12 89 -13 110 -6 103 4 -4 10
-28 12 -53 2 -25 3 -9 0 35 -2 43 -5 80 -6 82 -9 8 -84 12 -95 5 -10 -6 -16
-52 -21 -155 -4 -80 -10 -149 -14 -153 -3 -4 -4 15 -2 42 9 99 15 267 9 262
-3 -4 -9 -72 -13 -153 -5 -107 -11 -149 -21 -155 -10 -6 -7 -9 11 -13 23 -4
23 -4 2 -6 -22 -1 -23 -5 -25 -88 l-2 -88 -6 90 -6 90 -3 -90 -3 -90 -18 39
c-11 24 -20 33 -23 25 -4 -10 -6 -10 -6 -1 -1 6 -13 13 -28 13 l-28 1 30 8
c17 4 22 8 13 9 -14 1 -18 14 -20 82 -3 76 -5 83 -30 102 -23 17 -31 18 -50 9
l-23 -12 23 6 c13 3 33 -1 47 -10 24 -16 25 -21 23 -99 l-2 -82 -3 82 c-4 93
-16 108 -72 97 l-30 -6 -3 -174 c-2 -133 0 -174 10 -178 7 -2 4 -3 -5 -2 -22
2 -20 -20 -24 254 l-3 227 -6 -225 -6 -225 -2 221 -2 221 -24 13 c-14 7 -36
10 -50 8 -14 -3 -23 -1 -20 3 7 12 61 11 69 -1 3 -5 11 -10 18 -10 6 0 2 7
-10 15 -13 9 -40 15 -69 13 -31 -1 -51 4 -58 13 -8 10 -30 14 -74 14 -60 -1
-73 9 -22 18 l25 4 -27 2 c-17 1 -33 -7 -45 -22 -10 -13 -25 -26 -33 -30 -11
-4 -10 -6 5 -7 14 -2 10 -4 -10 -9 -16 -3 -31 -13 -31 -21 -1 -8 -3 -69 -5
-135 l-3 -120 -6 125 -6 125 -2 -127 c-1 -71 -6 -128 -10 -128 -8 0 -42 105
-42 130 0 8 -7 33 -14 55 -13 36 -14 37 -19 15 -4 -24 -4 -24 -6 3 0 15 -5 27
-11 27 -5 0 -10 -12 -11 -27 l-1 -28 -7 25 c-7 24 -8 24 -15 -10 -18 -87 -18
-102 -5 -112 11 -7 9 -8 -6 -6 -15 2 -22 -5 -30 -29 -9 -31 -12 -33 -55 -33
-42 0 -49 4 -83 45 -21 25 -46 45 -56 45 -26 0 -60 -41 -67 -80 -4 -19 -12
-41 -18 -49 -5 -7 -13 -34 -17 -60 -5 -38 -7 -29 -10 49 l-3 95 -6 -90 -6 -90
-2 88 c-1 62 -6 87 -14 87 -9 0 -8 3 2 10 12 7 9 20 -20 79 -34 71 -57 93 -72
69 -4 -7 -8 -8 -8 -3 0 6 -4 3 -10 -5 -6 -9 -5 -20 3 -29 7 -8 -1 -6 -18 6
-18 12 -43 20 -62 18 -18 -1 -30 1 -28 5 7 11 64 10 70 -1 4 -5 11 -9 18 -9 6
0 3 6 -8 14 -11 8 -37 13 -57 13 l-37 -1 -1 -313 0 -313 3400 0 3400 0 0 275
0 275 -25 -2 c-14 -1 -25 -7 -26 -13 -6 -69 -3 -115 9 -110 7 3 10 0 7 -5 -3
-6 -15 -10 -26 -10 -14 0 -19 -7 -18 -27 l1 -28 8 25 c6 20 8 21 8 5 0 -11 -4
-33 -7 -50 -7 -27 -8 -24 -14 25 -4 30 -9 71 -10 90 -2 19 -5 -12 -5 -69 -2
-97 -1 -103 16 -90 12 10 12 8 -3 -10 l-20 -23 -3 108 c-3 107 -10 130 -39
119 -7 -2 -15 0 -18 5 -8 13 -142 13 -150 0 -3 -5 -17 -10 -31 -10 -13 0 -25
-1 -26 -2 -1 -2 -5 -84 -8 -183 l-7 -180 1 182 c1 99 -2 176 -6 170 -14 -21
-9 -355 4 -359 7 -3 6 -7 -5 -11 -14 -5 -17 0 -18 36 -1 40 -2 40 -9 12 -8
-30 -8 -30 -9 -3 0 14 -7 29 -13 31 -10 4 -10 6 0 6 7 1 12 13 11 29 l-1 27
-7 -25 -8 -25 -4 25 c-3 22 -10 26 -54 31 l-50 6 50 3 c46 3 47 4 13 7 l-38 4
-2 57 -1 57 -6 -60 -6 -60 -9 80 c-4 43 -4 181 0 305 l9 225 5 -125 6 -125 2
120 c1 66 -2 125 -6 130 -18 26 -113 13 -134 -18 -10 -17 -20 52 -15 118 3 56
3 55 5 -19 2 -76 3 -78 25 -71 12 4 40 11 62 15 l40 9 -40 -3 c-22 -2 -48 -6
-57 -10 -14 -7 -17 3 -22 71 -4 43 -10 119 -13 168 l-7 90 -6 -80 -6 -80 -2
82 c-2 80 -3 83 -24 79 -21 -3 -23 -9 -26 -82 -2 -43 -7 -83 -12 -88 -17 -17
-11 -29 7 -15 15 12 16 12 8 -1 -5 -8 -9 -42 -8 -75 1 -54 0 -56 -7 -20 l-7
40 -2 -42 c0 -23 -5 -53 -11 -67 -7 -20 -6 -26 8 -29 9 -3 -2 -5 -25 -6 l-43
-1 -2 -122 -2 -123 -6 125 -6 125 -2 -122 c-1 -90 -5 -123 -14 -124 -7 -1 -2
-5 12 -9 l25 -8 -27 -1 -28 -1 0 -80 0 -80 -72 -1 c-40 -1 -76 -1 -80 0 -5 0
-8 -4 -8 -9 0 -6 5 -10 12 -10 6 0 8 -3 5 -6 -4 -4 -13 -1 -21 5 -8 7 -40 15
-70 18 l-56 6 -2 -129 -2 -129 -6 130 -6 130 -2 -112 c-2 -110 -3 -113 -24
-112 -14 1 -17 3 -8 5 12 4 15 14 11 42 l-5 37 -7 -35 -6 -35 -2 33 c-1 29 -4
32 -33 33 l-33 2 35 7 c22 5 27 8 13 9 -18 1 -22 8 -25 44 -2 23 -8 42 -15 42
-6 0 -15 4 -20 9 -5 5 -3 6 5 2 8 -5 12 2 11 26 -1 31 -1 32 -9 8 -8 -25 -8
-25 -9 -2 -1 21 -5 23 -45 21 -38 -2 -43 -5 -39 -23 4 -15 2 -17 -5 -8 -7 11
-10 11 -15 -2 -4 -9 1 -16 11 -19 16 -4 16 -5 0 -6 -15 -1 -18 -17 -21 -138
-1 -76 -4 0 -5 170 -2 294 -3 307 -21 307 -10 0 -29 9 -42 21 -13 11 -18 18
-11 14 9 -5 12 12 10 72 l-2 78 -6 -70 -6 -70 -2 73 c-1 40 -6 72 -12 72 -6 0
-11 -32 -12 -72 l-2 -73 -6 70 -6 70 -3 -75 c-2 -41 -3 -78 -2 -82 0 -5 -18
-9 -42 -9 l-42 -2 40 -7 40 -7 -37 -2 c-32 -1 -38 -5 -39 -23 -1 -22 -1 -22
-9 2 -8 24 -8 24 -9 3 -1 -16 -8 -23 -23 -24 -15 -1 -11 -4 12 -9 l35 -7 -32
-2 -33 -1 -2 -172 -2 -173 -6 175 -6 175 -2 -172 c-2 -134 -5 -173 -15 -173
-7 0 -17 15 -22 33 -7 23 -21 37 -47 50 -26 13 -38 26 -39 40 -1 20 -2 20 -9
-3 -8 -24 -8 -24 -9 -2 -1 15 -7 22 -21 22 -10 0 -31 5 -45 12 -19 9 -28 9
-37 0 -7 -7 -27 -12 -45 -12 l-32 0 -4 -152 -3 -153 -3 155 -4 155 -12 -160
c-10 -131 -12 -145 -13 -80 -1 49 -7 86 -14 94 -11 11 -10 12 1 6 11 -6 13 -4
8 9 -4 10 -7 20 -7 22 0 3 -4 3 -9 -1 -5 -3 -12 -1 -15 4 -3 5 -15 7 -26 4
-17 -5 -20 0 -21 28 l-2 34 -7 -35 c-6 -28 -8 -30 -9 -10 -3 62 -10 70 -61 70
-26 0 -61 7 -78 15 -27 14 -38 14 -84 3 l-53 -13 -3 -97 c-2 -84 -5 -98 -20
-99 -9 -1 -1 -5 18 -9 l35 -7 -30 -2 c-16 -2 -40 -4 -52 -7 -21 -4 -23 0 -23
45 0 45 -7 77 -32 142 -8 22 -17 27 -56 32 -55 6 -71 1 -82 -27 -9 -21 -9 -21
-9 2 -1 12 0 22 2 22 15 1 78 29 65 30 -9 0 -29 -5 -43 -12 -20 -9 -28 -9 -38
2 -9 10 -9 11 1 6 9 -6 12 10 10 66 l-1 73 -7 -65 -7 -65 -1 63 c-2 57 -4 62
-24 63 -22 1 -22 1 2 9 14 4 19 8 13 9 -7 1 -13 9 -14 19 0 14 -2 14 -9 -3 -8
-19 -9 -19 -9 1 -1 18 -9 23 -46 28 -25 4 -50 4 -57 0 -7 -5 -8 -3 -3 6 5 8
22 11 54 7 30 -4 39 -3 26 3 -11 5 -32 9 -47 9 -20 1 -28 6 -28 19 0 14 -2 15
-10 2 -7 -11 -10 -11 -10 -2 0 17 -52 12 -58 -6 -2 -8 3 -10 15 -6 15 5 15 4
3 -5 -8 -6 -22 -11 -31 -11 -24 0 -29 -21 -29 -130 0 -108 -8 -124 -57 -118
l-28 3 -3 105 -3 105 -46 48 c-40 39 -53 47 -84 47 -34 0 -39 4 -50 35 -7 19
-16 31 -19 25 -3 -5 -11 0 -19 11 -7 12 -8 18 -2 14 8 -4 10 13 9 52 l-1 58
-7 -50 -7 -50 -1 53 c-2 65 -22 69 -23 5 0 -36 -3 -43 -9 -28 -8 19 -9 19 -9
-2 -1 -12 -10 -42 -21 -68 -11 -26 -19 -61 -19 -78 l2 -32 7 30 c6 24 7 21 4
-14 -2 -24 -4 -52 -4 -62 0 -11 -5 -19 -11 -19 -8 0 -9 11 -5 31 3 18 1 37 -4
44 -6 7 -15 32 -20 56 -9 43 -9 43 -7 7 4 -47 -10 -36 -15 12 -4 45 -21 41
-29 -7 l-6 -38 -3 35 -2 35 -8 -42 c-5 -22 -18 -59 -29 -82 -12 -22 -21 -54
-21 -71 0 -21 -5 -30 -17 -31 -10 -1 -4 -5 12 -9 l30 -8 -27 -1 c-23 -1 -28
-6 -29 -28 l-1 -28 -8 30 -8 30 -1 -27 c-1 -26 -4 -28 -43 -27 -24 1 -36 3
-28 5 13 4 14 25 10 137 l-5 132 -5 -130 -6 -130 -2 131 -2 131 -82 5 c-56 4
-94 1 -118 -8 l-35 -14 35 5 c27 4 30 3 15 -4 -11 -5 -30 -10 -41 -10 -27 -1
-34 -19 -34 -82 l0 -50 -37 6 c-48 7 -31 -2 28 -15 l44 -9 -45 3 c-25 2 -66
-1 -92 -7 -37 -8 -47 -15 -51 -34 -3 -16 0 -23 11 -23 8 0 13 -3 9 -6 -8 -8
-47 6 -47 17 0 6 6 7 13 3 8 -5 8 -2 -2 9 -15 19 -26 23 -15 5 5 -8 2 -9 -10
-5 -10 4 -23 7 -29 8 -7 0 -3 4 8 9 17 7 17 9 3 9 -10 1 -18 7 -18 14 0 21
-36 49 -64 51 -15 0 -26 7 -27 16 0 10 -3 9 -10 -5 -6 -14 -7 -8 -3 22 10 77
4 83 -87 83 l-79 0 0 -194 0 -194 -22 6 c-19 5 -20 7 -5 10 15 3 17 20 16 190
l-2 187 -8 -145 c-12 -207 -15 -236 -17 -143 -2 68 -5 82 -19 86 -13 3 -14 5
-3 6 13 1 14 21 10 138 l-5 138 -5 -135 -6 -135 -2 138 -2 137 -47 2 c-27 0
-54 1 -60 1 -7 -1 -11 3 -8 7 3 5 24 6 48 4 l42 -3 -40 9 c-36 8 -42 6 -62
-16 -26 -28 -35 -122 -10 -108 7 4 9 3 4 -2 -5 -5 -14 -9 -20 -9 -8 0 -13 -36
-15 -117 l-3 -117 -57 -4 -57 -3 62 -2 62 -2 4 118 c2 105 3 101 3 -33 1 -82
-1 -138 -3 -122 -4 26 -7 27 -64 27 l-59 0 -1 -62 c-1 -35 -1 -67 1 -73 1 -5
-4 -4 -11 3 -7 6 -28 12 -46 12 l-33 0 0 303 c-1 331 0 328 -61 345 -29 9 -30
10 -9 11 14 1 20 5 15 9 -6 4 -12 48 -14 97 -1 50 -5 92 -8 95 -2 3 -3 -36 -1
-87 1 -50 0 -95 -4 -98 -4 -4 -6 3 -6 16 1 13 1 57 0 97 -3 108 -22 89 -24
-25 l-2 -98 -6 100 -6 100 -2 -97z"/>
<path d="M1697 1063 c937 -2 2469 -2 3405 0 937 1 171 2 -1702 2 -1873 0
-2639 -1 -1703 -2z"/>
</g>
</svg>
